# xmcd
#
# Track frame offsets:
#	150
#	10755
#	23992
#	32622
#	46820
#	59375
#	73030
#	86600
#	101270
#	113835
#	134825
#	147340
#
# Disc length: 2101 seconds
# Revision: 0
# Processed by: cddbd v1.5.2PL0 Copyright (c) Steve Scherf et al.
# Submitted via: dBpowerAMP V12.0
#
DISCID=a008330c
DTITLE=Various Artist - A Classic Taste of America
DYEAR=1993
DGENRE=Blues
TTITLE0=Chuck Berry - Maybellene
TTITLE1=Jackie Wilson - I Get the Sweetest Feeling
TTITLE2=Eddie Cochran - C'mon Everybody
TTITLE3=B B King - Ain't Nobody Home
TTITLE4=James Brown - It's a Man's Man's Man's World
TTITLE5=The Walker Brothers - The Sun Ain't Gonna Shine Anymore
TTITLE6=Nina Simone - My Baby Just Cares for Me (Live)
TTITLE7=P.P. Arnold - The First Cut Is the Deepest
TTITLE8=Dinah Washington - Mad About the Boy
TTITLE9=Gladys Knight and The Pips - Midnight Train to Georgia
TTITLE10=Dionne Warwick - Walk on by
TTITLE11=Louis Armstrong - What a Wonderful World
EXTD=
EXTT0=
EXTT1=
EXTT2=
EXTT3=
EXTT4=
EXTT5=
EXTT6=
EXTT7=
EXTT8=
EXTT9=
EXTT10=
EXTT11=
PLAYORDER=
